<svg xmlns="http://www.w3.org/2000/svg" viewBox="0 -1001 875.875 1001" width="24" height="24" fill="currentColor"><path transform="scale(1,-1)" d="M864.14453125 778.12109375H11.73046875C5.25525 778.12109375 0 783.37634375 0 789.8515625V789.8515625V836.7734375C0 843.24865625 5.25525 848.50390625 11.73046875 848.50390625V848.50390625H864.14453125C870.6197500000001 848.50390625 875.875 843.24865625 875.875 836.7734375V836.7734375V789.8515625C875.875 783.37634375 870.6197500000001 778.12109375 864.14453125 778.12109375V778.12109375zM864.14453125 465.30859375H11.73046875C5.25525 465.30859375 0 470.5638437499999 0 477.0390625V477.0390625V523.9609375C0 530.4361562500001 5.25525 535.69140625 11.73046875 535.69140625V535.69140625H864.14453125C870.6197500000001 535.69140625 875.875 530.4361562500001 875.875 523.9609375V523.9609375V477.0390625C875.875 470.5638437499999 870.6197500000001 465.30859375 864.14453125 465.30859375V465.30859375zM864.14453125 152.49609375H11.73046875C5.25525 152.49609375 0 157.7513437499999 0 164.2265625V164.2265625V211.1484375C0 217.6236562500001 5.25525 222.87890625 11.73046875 222.87890625V222.87890625H864.14453125C870.6197500000001 222.87890625 875.875 217.6236562500001 875.875 211.1484375V211.1484375V164.2265625C875.875 157.7513437499999 870.6197500000001 152.49609375 864.14453125 152.49609375V152.49609375z"/></svg>
